<svg xmlns="http://www.w3.org/2000/svg" width="1200" height="900" viewBox="0 0 1200 900" role="img" aria-label="Notre Cabaret moderne — lumières de scène et ambiance cabaret">
  <defs>
    <radialGradient id="bg" cx="0.5" cy="0.38" r="0.85">
      <stop offset="0" stop-color="#5c1226"/>
      <stop offset="0.55" stop-color="#3c0c1c"/>
      <stop offset="1" stop-color="#240612"/>
    </radialGradient>
    <linearGradient id="spot" x1="0" y1="0" x2="0" y2="1">
      <stop offset="0" stop-color="#e8cd8b" stop-opacity="0.5"/>
      <stop offset="1" stop-color="#e8cd8b" stop-opacity="0"/>
    </linearGradient>
  </defs>
  <rect width="1200" height="900" fill="url(#bg)"/>
  <polygon points="250,-20 430,-20 560,700 240,700" fill="url(#spot)" opacity="0.32"/>
  <polygon points="600,-20 760,-20 700,700 460,700" fill="url(#spot)" opacity="0.22"/>
  <polygon points="940,-20 1090,-20 1040,700 860,700" fill="url(#spot)" opacity="0.28"/>
  <path d="M0 0 C 180 260, 120 520, 0 900" fill="#2b0814" opacity="0.9"/>
  <path d="M1200 0 C 1020 260, 1080 520, 1200 900" fill="#2b0814" opacity="0.9"/>
  <rect x="596" y="430" width="8" height="300" rx="4" fill="#e8cd8b"/>
  <ellipse cx="600" cy="760" rx="230" ry="26" fill="#e8cd8b" opacity="0.25"/>
  <g fill="#e8cd8b">
    <circle cx="160" cy="200" r="5"/>
    <circle cx="1040" cy="180" r="5"/>
    <circle cx="220" cy="420" r="4"/>
    <circle cx="990" cy="400" r="4"/>
    <circle cx="300" cy="640" r="5"/>
    <circle cx="900" cy="620" r="5"/>
    <circle cx="500" cy="240" r="4"/>
    <circle cx="700" cy="300" r="3.5"/>
    <circle cx="180" cy="760" r="4"/>
    <circle cx="1030" cy="740" r="4"/>
    <circle cx="430" cy="480" r="3.5"/>
    <circle cx="780" cy="520" r="3.5"/>
  </g>
  <path d="M600 300 q 120 -60 220 6" fill="none" stroke="#e8cd8b" stroke-width="2.5" opacity="0.4"/>
</svg>
